<svg width="508" height="304" viewBox="0 0 508 304" fill="none" xmlns="http://www.w3.org/2000/svg">
<path d="M119.063 300.562C125.567 295.061 129.517 286.372 128.481 277.912C127.445 269.453 121.029 261.676 112.705 259.88C104.382 258.083 94.8936 263.056 92.3655 271.194C90.9742 255.504 89.3709 239.156 81.0367 225.794C73.4902 213.695 60.4196 205.037 46.254 203.489C32.0884 201.94 17.1738 207.789 8.33926 218.981C-0.495316 230.172 -2.65843 246.442 3.52908 259.29C8.0872 268.755 16.4848 275.799 25.2835 281.53C53.7151 299.892 87.8151 307.359 121.309 302.557L119.063 300.562Z" fill="#F2F2F2"/>
<path d="M22.3474 208.114C34.0358 217.643 44.7587 228.301 54.3609 239.933C69.3884 258.075 81.5488 278.415 90.4184 300.246C91.0677 301.838 88.4841 302.532 87.842 300.957C73.3297 265.478 50.1621 234.207 20.4582 210.005C19.1243 208.918 21.0246 207.035 22.3474 208.114Z" fill="white"/>
<path d="M344.467 299.068C335.534 291.512 330.108 279.577 331.531 267.958C332.954 256.339 341.767 245.657 353.199 243.19C364.632 240.723 377.664 247.553 381.136 258.731C383.047 237.18 385.249 214.726 396.696 196.373C407.061 179.755 425.014 167.864 444.47 165.737C463.927 163.61 484.412 171.644 496.546 187.015C508.68 202.387 511.651 224.733 503.153 242.381C496.892 255.381 485.358 265.056 473.273 272.927C434.718 298.039 386.89 308.512 341.382 301.808" fill="#F2F2F2"/>
<path d="M477.306 172.09C461.252 185.178 446.524 199.817 433.335 215.793C420.145 231.754 408.532 248.957 398.659 267.162C393.141 277.374 388.184 287.88 383.81 298.633C382.919 300.82 386.467 301.772 387.349 299.609C395.096 280.652 404.681 262.5 415.966 245.414C427.196 228.39 440.049 212.497 454.345 197.957C462.431 189.737 470.963 181.969 479.901 174.687C481.733 173.194 479.123 170.609 477.306 172.09L477.306 172.09Z" fill="white"/>
<path d="M143.349 303.335H356.476V84.4544C356.476 37.886 318.626 0 272.101 0H227.724C181.2 0 143.349 37.886 143.349 84.4544V303.335Z" fill="#F2F2F2"/>
<path d="M187.726 303.335H356.476V84.4544C356.522 66.6105 350.877 49.2175 340.362 34.8079C339.975 34.2791 339.588 33.7571 339.189 33.2408C334.104 26.564 328.051 20.6838 321.232 15.7944C320.847 15.5138 320.46 15.2382 320.067 14.9625C314.361 11.01 308.189 7.77898 301.691 5.34287C301.305 5.19647 300.912 5.04978 300.519 4.90909C294.642 2.80975 288.55 1.37172 282.355 0.621535C281.97 0.569021 281.576 0.527929 281.182 0.486835C275.145 -0.159267 269.056 -0.159267 263.019 0.486835C262.626 0.527929 262.232 0.569016 261.843 0.622097C255.65 1.37233 249.559 2.81019 243.683 4.90911C243.29 5.04981 242.897 5.19649 242.51 5.34318C236.092 7.74856 229.992 10.9314 224.347 14.8207C223.955 15.0904 223.562 15.366 223.176 15.6417C219.353 18.3727 215.763 21.4153 212.441 24.7382C209.777 27.4036 207.295 30.2448 205.011 33.2426C204.614 33.7571 204.227 34.2791 203.84 34.807C193.325 49.2168 187.68 66.6101 187.726 84.4544V303.335Z" fill="#CCCCCC"/>
<path d="M201.448 205.438C196.289 205.438 192.106 201.251 192.106 196.086C192.106 190.922 196.289 186.735 201.448 186.735C206.608 186.735 210.791 190.922 210.791 196.086C210.791 201.251 206.608 205.438 201.448 205.438Z" fill="#073B4C"/>
<path d="M160.809 296.779H167.968L171.374 269.141L160.808 269.141L160.809 296.779Z" fill="#FFB8B8"/>
<path d="M173.081 294.731H159.275V303.432H181.774C181.774 302.289 181.549 301.158 181.112 300.102C180.675 299.047 180.035 298.088 179.228 297.28C178.42 296.472 177.462 295.831 176.408 295.393C175.353 294.956 174.223 294.731 173.081 294.731Z" fill="#2F2E41"/>
<path d="M125.19 296.779H132.349L135.755 269.141L125.189 269.141L125.19 296.779Z" fill="#FFB8B8"/>
<path d="M137.463 294.731H123.657V303.432H146.155C146.155 302.289 145.93 301.158 145.494 300.102C145.057 299.047 144.416 298.088 143.609 297.28C142.802 296.472 141.844 295.831 140.789 295.393C139.735 294.956 138.604 294.731 137.463 294.731Z" fill="#2F2E41"/>
<path d="M196.72 197.939C197.235 197.179 197.577 196.316 197.723 195.41C197.869 194.503 197.814 193.576 197.563 192.693C197.312 191.811 196.87 190.994 196.27 190.3C195.669 189.607 194.924 189.053 194.086 188.679L169.751 121.544L157.777 128.085L185.562 192.242C185.028 193.691 185.043 195.287 185.605 196.726C186.167 198.166 187.238 199.349 188.613 200.051C189.988 200.753 191.573 200.926 193.067 200.537C194.562 200.147 195.861 199.223 196.72 197.939Z" fill="#FFB8B8"/>
<path d="M128.847 210.554C129.643 210.097 130.329 209.472 130.857 208.721C131.384 207.97 131.741 207.113 131.902 206.209C132.064 205.306 132.025 204.378 131.789 203.491C131.553 202.604 131.125 201.779 130.536 201.076L138.075 130.058L124.448 130.682L121.315 200.536C120.199 201.605 119.514 203.046 119.389 204.586C119.264 206.126 119.708 207.659 120.636 208.894C121.564 210.129 122.913 210.98 124.427 211.285C125.94 211.591 127.513 211.331 128.847 210.554Z" fill="#FFB8B8"/>
<path d="M150.586 109.109C142.666 109.109 136.245 102.682 136.245 94.7541C136.245 86.8261 142.666 80.3992 150.586 80.3992C158.507 80.3992 164.928 86.8261 164.928 94.7541C164.928 102.682 158.507 109.109 150.586 109.109Z" fill="#FFB8B8"/>
<path d="M128.939 194.402H172.175L172.123 194.065C172.046 193.562 164.418 143.545 170.044 127.182C170.608 125.574 170.558 123.814 169.904 122.24C169.25 120.667 168.037 119.391 166.5 118.659H166.499C158.458 114.868 143.022 110.201 129.993 121.528C128.076 123.222 126.579 125.34 125.621 127.713C124.662 130.086 124.268 132.65 124.47 135.202L128.939 194.402Z" fill="#073B4C"/>
<path d="M163.871 150.937L183.337 146.984L174.212 125.342C173.666 123.246 172.312 121.452 170.446 120.354C168.581 119.256 166.356 118.943 164.261 119.485C162.165 120.026 160.37 121.377 159.268 123.242C158.167 125.107 157.849 127.333 158.385 129.432L163.871 150.937Z" fill="#073B4C"/>
<path d="M138.941 158.276L140.111 131.426C140.998 126.378 138.112 121.606 133.672 120.826C129.231 120.049 124.895 123.55 124.003 128.635L119.605 153.724L138.941 158.276Z" fill="#073B4C"/>
<path d="M130.377 191.188C123.42 217.708 122.661 251.428 124.538 288.208L133.881 287.039L150.814 216.904L160.156 288.208L170.667 287.623C173.807 249.032 176.864 215.901 171.835 194.11L130.377 191.188Z" fill="#2F2E41"/>
<path d="M141.137 105.848C143.812 108.701 148.781 107.169 149.13 103.272C149.157 102.97 149.155 102.665 149.124 102.363C148.944 100.637 147.947 99.0694 148.186 97.2468C148.24 96.7931 148.409 96.3609 148.677 95.9908C150.809 93.1332 155.813 97.269 157.825 94.6821C159.059 93.0958 157.609 90.5983 158.556 88.8255C159.805 86.4855 163.506 87.6398 165.828 86.3584C168.41 84.9326 168.256 80.9666 166.556 78.5543C164.482 75.6123 160.847 74.0425 157.258 73.8163C153.668 73.59 150.103 74.5613 146.752 75.8686C142.944 77.3539 139.168 79.4066 136.825 82.7579C133.975 86.8334 133.701 92.3126 135.126 97.0782C135.993 99.9771 138.952 103.518 141.137 105.848Z" fill="#2F2E41"/>
<path d="M17.5281 303.711H448.624C448.808 303.71 448.984 303.637 449.114 303.506C449.244 303.376 449.317 303.199 449.317 303.015C449.317 302.831 449.244 302.654 449.114 302.523C448.984 302.393 448.808 302.319 448.624 302.319H17.5281C17.3441 302.319 17.1677 302.393 17.0378 302.523C16.9078 302.654 16.8348 302.831 16.8348 303.015C16.8348 303.199 16.9078 303.376 17.0378 303.506C17.1677 303.637 17.3441 303.71 17.5281 303.711Z" fill="#3F3D56"/>
<path d="M234.147 239.921H310.055C311.055 239.926 312.016 239.534 312.727 238.831C313.439 238.129 313.843 237.172 313.851 236.171V66.5789C313.843 65.5783 313.439 64.6216 312.727 63.9186C312.016 63.2157 311.055 62.824 310.055 62.8294H234.147C233.147 62.824 232.186 63.2157 231.475 63.9186C230.763 64.6216 230.359 65.5783 230.352 66.5789V236.171C230.359 237.172 230.763 238.129 231.475 238.831C232.186 239.534 233.147 239.926 234.147 239.921Z" fill="white"/>
<path d="M230.352 117.704H313.851V118.873H230.352V117.704Z" fill="#CCCCCC"/>
<path d="M230.06 184.397H313.559V185.566H230.06V184.397Z" fill="#CCCCCC"/>
<path d="M286.407 62.8294H287.575V240.505H286.407V62.8294Z" fill="#CCCCCC"/>
<path d="M257.212 62.8294H258.379V240.505H257.212V62.8294Z" fill="#CCCCCC"/>
</svg>
